{"title":"Percy Jackson Sea of Monsters 2013 WEBRip x264 [Cam Audio] - ViZ","uid":9147769,"size":424932465,"categoryP":"video","categoryS":"movies","magnet":"?xt=urn:btih:4b1e5a5d68c2ecb2ae99e6a53af02f37462ae9a2&amp;dn=Percy+Jackson+Sea+of+Monsters+2013+WEBRip+x264+%5BCam+Audio%5D+-+ViZ&amp;tr=udp%3A%2F%2Ftracker.openbittorrent.com%3A80&amp;tr=udp%3A%2F%2Fopen.demonii.com%3A1337&amp;tr=udp%3A%2F%2Ftracker.coppersurfer.tk%3A6969&amp;tr=udp%3A%2F%2Fexodus.desync.com%3A6969","seeders":1,"leechers":0,"uploader":"ValidusVyto","files":-1,"time":1383618333,"description":"_______ Visit us at our Semi Public Bittorrent Community ________\n  &lt;a href=&quot;\nhttp://p2pdl.com&quot; rel=&quot;nofollow&quot; target=&quot;_NEW&quot;&gt;\nhttp://p2pdl.com&lt;/a&gt;  _____________________________ &lt;a href=&quot; http://p2pdl.com&quot; rel=&quot;nofollow&quot; target=&quot;_NEW&quot;&gt; http://p2pdl.com&lt;/a&gt;\n\n\n\nPercy Jackson Sea of Monsters 2013 WEBRip x264 [Cam Audio] - ViZNU\n\n\nGenre: Horror | Mystery | Thriller\nPlot: The ghost of a teenager who died years ago reaches out to the land of the\nliving in order to save someone from suffering her same fate. \nDirector: Vincenzo Natali\nStars: Abigail Breslin, Samantha Weinstein, Stephen McHattie.\nRated: N/a\n\n\nIMDb: &lt;a href=&quot;\nhttp://www.imdb.com/title/tt2345567/&quot; rel=&quot;nofollow&quot; target=&quot;_NEW&quot;&gt;\nhttp://www.imdb.com/title/tt2345567/&lt;/a&gt;\n\nTrailer:\n\n\nFormat                         : MPEG-4\nFile size                      : 351 MiB\nDuration                       : 1h 36mn\nOverall bit rate               : 506 Kbps\n\nVideo\nFormat                         : AVC\nBit rate                       : 463 Kbps\nWidth                          : 720 pixels\nHeight                         : 400 pixels\nDisplay aspect ratio           : 16:9\nFrame rate mode                : Constant\nFrame rate                     : 24.000 fps\nBit depth                      : 10 bits\nStream size                    : 321 MiB (91%)\nWriting library                : x264 core 138 r2358\n\nAudio\nFormat                         : AAC\nBit rate mode                  : Variable\nBit rate                       : 40.0 Kbps\nChannel positions              : Front: L R\nSampling rate                  : 48.0 KHz\nStream size                    : 27.7 MiB (8%)\nLanguage                       : English\n\nSubtitle                       : Yes (English)\n\nSource                         : WEB-DL.1080p\n &lt;a href=&quot;\nhttp://ultraimg.com/images/pGkdi.png&quot; rel=&quot;nofollow&quot; target=&quot;_NEW&quot;&gt;\nhttp://ultraimg.com/images/pGkdi.png&lt;/a&gt; &lt;a href=&quot;\nhttp://ultraimg.com/images/MYNom.png&quot; rel=&quot;nofollow&quot; target=&quot;_NEW&quot;&gt;\nhttp://ultraimg.com/images/MYNom.png&lt;/a&gt; &lt;a href=&quot;\nhttp://ultraimg.com/images/5Lsb.png&quot; rel=&quot;nofollow&quot; target=&quot;_NEW&quot;&gt;\nhttp://ultraimg.com/images/5Lsb.png&lt;/a&gt; &lt;a href=&quot;\nhttp://ultraimg.com/images/UXpEF.png&quot; rel=&quot;nofollow&quot; target=&quot;_NEW&quot;&gt;\nhttp://ultraimg.com/images/UXpEF.png&lt;/a&gt; &lt;a href=&quot;\nhttp://ultraimg.com/images/kvyqe.png&quot; rel=&quot;nofollow&quot; target=&quot;_NEW&quot;&gt;\nhttp://ultraimg.com/images/kvyqe.png&lt;/a&gt; &lt;a href=&quot;\nhttp://ultraimg.com/images/jEu67.png&quot; rel=&quot;nofollow&quot; target=&quot;_NEW&quot;&gt;\nhttp://ultraimg.com/images/jEu67.png&lt;/a&gt; &lt;a href=&quot;\nhttp://ultraimg.com/images/ySMd.png&quot; rel=&quot;nofollow&quot; target=&quot;_NEW&quot;&gt;\nhttp://ultraimg.com/images/ySMd.png&lt;/a&gt; &lt;a href=&quot;\nhttp://ultraimg.com/images/Ld4iV.png&quot; rel=&quot;nofollow&quot; target=&quot;_NEW&quot;&gt;\nhttp://ultraimg.com/images/Ld4iV.png&lt;/a&gt;\n\n----------------------------------------------------------------------------------------------------\n\n\nEncoded using revolutionary 10bit encoding, which enables us to provide you more crispier \nand sharper images at small sizes, just make sure you follow our instructions without a fault.\nRecommend to you to use latest version of VLC player. Install K-Lite Codec Pack or shark007 codecs\nin case of any kind of problem in playback (For non-VLC Media Player users). Alternatively, install\nCore AVC codecs, the fastest decoder that there is coupled with Community Center Codec Pack and play\non Windows Media Player Classic. Check sample to be sure.\nEnjoy!\n\nEncoder Notes:Looking For Early Access To Anything You Can Provide DVDScr, R5, DVDR, BluRay, Direct\nAudio, Music Releases and Seedboxes. We require dedicated servers, so as to do more \nand fast releases of movies.\nIf You Got anything to offer please contact us at &quot;&lt;a class=&quot;__cf_email__&quot; href=&quot;/cdn-cgi/l/email-protection&quot; data-cfemail=&quot;46363421062e33352e6825292b&quot;&gt;[email&amp;#160;protected]&lt;/a&gt;&lt;script cf-hash='f9e31' type=&quot;text/javascript&quot;&gt;\n/* &lt;![CDATA[ */!function(){try{var t=&quot;currentScript&quot;in document?document.currentScript:function(){for(var t=document.getElementsByTagName(&quot;script&quot;),e=t.length;e--;)if(t[e].getAttribute(&quot;cf-hash&quot;))return t[e]}();if(t&amp;&amp;t.previousSibling){var e,r,n,i,c=t.previousSibling,a=c.getAttribute(&quot;data-cfemail&quot;);if(a){for(e=&quot;&quot;,r=parseInt(a.substr(0,2),16),n=2;a.length-n;n+=2)i=parseInt(a.substr(n,2),16)^r,e+=String.fromCharCode(i);e=document.createTextNode(e),c.parentNode.replaceChild(e,c)}}}catch(u){}}();/* ]]&gt; */&lt;/script&gt;&quot;.\n\n\nFor more of our team uploads visit @                                             &lt;a href=&quot; http://thepiratebay.se/user/vitamin_x&quot; rel=&quot;nofollow&quot; target=&quot;_NEW&quot;&gt; http://thepiratebay.se/user/vitamin_x&lt;/a&gt;","torrent":{"xt":"urn:btih:4b1e5a5d68c2ecb2ae99e6a53af02f37462ae9a2","amp;dn":"Percy+Jackson+Sea+of+Monsters+2013+WEBRip+x264+%5BCam+Audio%5D+-+ViZ","amp;tr":["udp%3A%2F%2Ftracker.openbittorrent.com%3A80","udp%3A%2F%2Fopen.demonii.com%3A1337","udp%3A%2F%2Ftracker.coppersurfer.tk%3A6969","udp%3A%2F%2Fexodus.desync.com%3A6969"],"infoHash":"4b1e5a5d68c2ecb2ae99e6a53af02f37462ae9a2","infoHashBuffer":{"type":"Buffer","data":[75,30,90,93,104,194,236,178,174,153,230,165,58,240,47,55,70,42,233,162]},"announce":[],"urlList":[]}}